<?xml version="1.0" encoding="UTF-8"?>
<svg width="228px" height="222px" viewBox="0 0 228 222" version="1.1" xmlns="http://www.w3.org/2000/svg" xmlns:xlink="http://www.w3.org/1999/xlink">
    <!-- Generator: Sketch 61 (89581) - https://sketch.com -->
    <title>Group 7</title>
    <desc>Created with Sketch.</desc>
    <g id="Circles" stroke="none" stroke-width="1" fill="none" fill-rule="evenodd">
        <g id="Group-7" transform="translate(2.000000, 2.000000)" stroke="#6A6DEB" stroke-width="4">
            <path d="M78.7627213,82.2687931 C79.9257196,66.4642631 92.135373,56.0736412 108.429109,52.9249754 C112.619723,52.1151647 119.921476,49.0311903 121.253859,52.9249754 L123.363422,54.656391 C124.939446,59.2621961 126.061002,64.0336171 126.700368,68.841966 C128.586171,83.0241481 121.414858,94.6725204 109.572806,102.985615 C107.707115,104.295326 102.087345,104.268541 103.428921,106.074086 C105.243197,108.515811 109.892106,105.981828 112.731921,107.237277 C126.684717,113.405644 127.857091,137.90051 120.622734,148.637496 C102.998928,174.794148 75.0351388,170.44186 65,142.002632" id="Path-5"></path>
            <path d="M78.11298,5.01955481 C70.9944905,5.16929439 63.7452824,4.10262175 56.7575113,5.46877356 C-1.15528983,16.7910789 -13.4585514,113.383937 13.9645425,155.582055 C50.4195493,211.678303 91.3625729,222.411081 155.913761,216.140649 C197.928096,212.059422 217.200572,174.143001 220.495793,136.781274 C221.510645,125.274719 226.292522,93.9992913 219.542668,77.7578361 C202.220588,36.0775607 135.930494,-12.3824931 89.9176675,2.87502356 L78.11298,5.01955481 Z" id="Path"></path>
        </g>
    </g>
</svg>