<?xml version="1.0" encoding="UTF-8"?>
<svg width="228px" height="222px" viewBox="0 0 228 222" version="1.1" xmlns="http://www.w3.org/2000/svg" xmlns:xlink="http://www.w3.org/1999/xlink">
    <!-- Generator: Sketch 61 (89581) - https://sketch.com -->
    <title>Group</title>
    <desc>Created with Sketch.</desc>
    <g id="Circles" stroke="none" stroke-width="1" fill="none" fill-rule="evenodd">
        <g id="Group" transform="translate(2.000000, 2.000000)" stroke="#6A6DEB" stroke-width="4">
            <g id="Group-2">
                <path d="M78.11298,5.01955481 C70.9944905,5.16929439 63.7452824,4.10262175 56.7575113,5.46877356 C-1.15528983,16.7910789 -13.4585514,113.383937 13.9645425,155.582055 C50.4195493,211.678303 91.3625729,222.411081 155.913761,216.140649 C197.928096,212.059422 217.200572,174.143001 220.495793,136.781274 C221.510645,125.274719 226.292522,93.9992913 219.542668,77.7578361 C202.220588,36.0775607 135.930494,-12.3824931 89.9176675,2.87502356 L78.11298,5.01955481 Z" id="Path"></path>
                <path d="M77.108448,69.624228 C77.7889551,58.118618 83.1675439,47.4949721 93.0107918,40.9484468 C93.4063781,40.6853511 106.222148,33.4255312 108.639698,36.9757905 C127.867563,65.2126027 96.8561082,103.977615 85.280323,127.018759 C81.7336103,134.078351 69.4317862,144.065443 75.7998543,148.741416 C89.1656087,158.555679 108.591521,153.697145 124.987354,156.175009" id="Path-4"></path>
            </g>
        </g>
    </g>
</svg>