<svg width="32" height="25" viewBox="0 0 32 25" fill="none" xmlns="http://www.w3.org/2000/svg">
<path d="M26.9262 14.6786C26.9262 14.6406 26.9262 14.6027 26.9072 14.5647L15.9976 5.57143L5.08803 14.5647C5.08803 14.6027 5.06906 14.6406 5.06906 14.6786V23.7857C5.06906 24.4498 5.61928 25 6.28334 25H13.5691V17.7143H18.4262V25H25.7119C26.376 25 26.9262 24.4498 26.9262 23.7857V14.6786ZM31.1572 13.3694C31.3659 13.1228 31.328 12.7243 31.0813 12.5156L26.9262 9.0625V1.32143C26.9262 0.97991 26.6606 0.714285 26.3191 0.714285H22.6762C22.3347 0.714285 22.0691 0.97991 22.0691 1.32143V5.02121L17.4396 1.15067C16.6427 0.486605 15.3525 0.486605 14.5557 1.15067L0.913923 12.5156C0.667271 12.7243 0.629325 13.1228 0.83803 13.3694L2.01437 14.7734C2.10924 14.8873 2.26102 14.9632 2.41281 14.9821C2.58357 15.0011 2.73535 14.9442 2.86816 14.8493L15.9976 3.90179L29.1271 14.8493C29.2409 14.9442 29.3737 14.9821 29.5255 14.9821C29.5445 14.9821 29.5635 14.9821 29.5825 14.9821C29.7342 14.9632 29.886 14.8873 29.9809 14.7734L31.1572 13.3694Z" fill="#3A3A3A"/>
</svg>
