<svg width="722" height="158" viewBox="0 0 722 158" fill="none" xmlns="http://www.w3.org/2000/svg">
<path d="M121.507 46.7765C121.507 60.0584 121.507 99.9042 121.507 86.6223C121.507 76.9172 118.887 64.7432 125.562 56.5725C141.23 37.3943 153.148 86.3531 155.303 92.0498" stroke="#655AF3" stroke-width="4" stroke-linecap="round" stroke-linejoin="round"/>
<path d="M666.055 37.0001C666.055 54.8965 662.666 75.8361 668.036 92.9482C670.012 99.2459 680.364 99.4038 686.109 99.4038" stroke="#655AF3" stroke-width="4" stroke-linecap="round" stroke-linejoin="round"/>
<path d="M416.882 29.4185C411.463 29.4185 404.297 27.6556 399.439 31.3673C396.769 33.4075 394.972 40.0675 393.994 43.6688C392.087 50.6895 390.243 57.7299 391.317 65.3487C392.451 73.3885 395.416 86.5176 402.116 89.4646C408.692 92.3574 421.344 94.3754 425.189 84.2273" stroke="#655AF3" stroke-width="4" stroke-linecap="round" stroke-linejoin="round"/>
<path d="M439.4 41.0803C433.666 51.1989 425.931 67.8301 432.535 79.256C436.117 85.4521 439.427 90.1558 446.265 93.9204C452.626 97.4218 454.995 83.71 455.793 81.1951C457.939 74.4245 459.277 58.8993 456.423 51.9876C455.082 48.7399 440.902 36.3007 438.139 41.0803" stroke="#655AF3" stroke-width="4" stroke-linecap="round" stroke-linejoin="round"/>
<path d="M467.8 50.6014C467.8 63.102 465.955 76.9032 467.869 89.3315C468.249 91.7955 470.309 101.379 470.309 93.9767C470.309 84.0063 467.8 74.0658 467.8 63.994C467.8 60.084 466.676 43.0001 475.327 43.0001C478.549 43.0001 480.52 49.7656 481.6 51.6872C486.891 61.1017 487.872 73.8911 487.872 84.264C487.872 86.421 487.872 98.5853 487.872 93.4941C487.872 83.3369 486.314 72.5093 491.009 63.0288C492.771 59.4686 498.772 51.8649 503.902 51.6872C506.024 51.6138 506.006 58.2335 506.412 59.7711C507.913 65.4568 507.191 71.4951 509.199 77.1454C510.713 81.4041 511.708 87.4115 511.708 91.8652" stroke="#655AF3" stroke-width="4" stroke-linecap="round" stroke-linejoin="round"/>
<path d="M521.8 50.6014C521.8 63.102 519.955 76.9032 521.869 89.3315C522.249 91.7955 524.309 101.379 524.309 93.9767C524.309 84.0063 521.8 74.0658 521.8 63.994C521.8 60.084 520.676 43.0001 529.327 43.0001C532.549 43.0001 534.52 49.7656 535.6 51.6872C540.891 61.1017 541.872 73.8911 541.872 84.264C541.872 86.421 541.872 98.5853 541.872 93.4941C541.872 83.3369 540.314 72.5093 545.009 63.0288C546.771 59.4686 552.772 51.8649 557.902 51.6872C560.024 51.6138 560.006 58.2335 560.412 59.7711C561.913 65.4568 561.191 71.4951 563.199 77.1454C564.713 81.4041 565.708 87.4115 565.708 91.8652" stroke="#655AF3" stroke-width="4" stroke-linecap="round" stroke-linejoin="round"/>
<path d="M575.096 52.2718C575.096 63.4737 567.788 97.0061 590.919 95.8941C600.583 95.4295 600.301 75.9165 600.301 70.8113C600.301 65.991 602.944 52.3779 599.041 49.0001" stroke="#655AF3" stroke-width="4" stroke-linecap="round" stroke-linejoin="round"/>
<path d="M610.466 53.0001C610.466 65.2113 610.466 101.845 610.466 89.6336C610.466 80.7109 608.056 69.5184 614.197 62.0064C628.612 44.3743 639.577 89.3862 641.559 94.6236" stroke="#655AF3" stroke-width="4" stroke-linecap="round" stroke-linejoin="round"/>
<path d="M652 56.0001C652 68.1088 652 80.2174 652 92.326" stroke="#655AF3" stroke-width="4" stroke-linecap="round" stroke-linejoin="round"/>
<path d="M97 37.4074C98.7533 36.7538 111.141 31.9372 107.735 28.5068C106.064 26.8244 102.304 28.3454 101.609 30.0775C100.382 33.1387 104.642 38.5254 104.642 34.5802" stroke="#655AF3" stroke-width="4" stroke-linecap="round" stroke-linejoin="round"/>
<path d="M11.14 2.77649C18.2135 3.16853 32.1803 3.25861 38.9703 6.11542C47.8642 9.85743 50.9503 17.0418 52.7217 23.8435C57.7132 43.0092 55.8207 64.1111 55.3411 83.5468C55.1779 90.1564 55.7448 95.644 44.6455 94.3586C33.5116 93.0691 23.2655 89.1637 15.6693 83.1493C7.56781 76.7349 2.83337 68.8969 2.35438 60.1743C2.27192 58.6726 1.18543 54.3395 3.28206 53.5759" stroke="#655AF3" stroke-width="4" stroke-linecap="round" stroke-linejoin="round"/>
<path d="M263.284 43.8437C257.621 53.8416 249.981 70.2743 256.504 81.5638C260.041 87.6859 263.31 92.3335 270.065 96.0532C276.347 99.5128 278.687 85.9646 279.474 83.4798C281.594 76.79 282.915 61.45 280.097 54.6209C278.772 51.412 264.767 39.1212 262.039 43.8437" stroke="#655AF3" stroke-width="4" stroke-linecap="round" stroke-linejoin="round"/>
<path d="M74.2843 38.8437C68.621 48.8416 60.9811 65.2743 67.504 76.5638C71.0412 82.6859 74.3101 87.3335 81.0646 91.0532C87.3469 94.5128 89.6866 80.9646 90.4739 78.4798C92.5936 71.79 93.915 56.45 91.0966 49.6209C89.7723 46.412 75.7675 34.1212 73.0389 38.8437" stroke="#655AF3" stroke-width="4" stroke-linecap="round" stroke-linejoin="round"/>
<path d="M108 46.7765C108 59.0125 108 71.2485 108 83.4846" stroke="#655AF3" stroke-width="4" stroke-linecap="round" stroke-linejoin="round"/>
<path d="M290.126 46.7765C290.126 51.8299 287.188 107.773 309.713 93.3525C324.003 84.2039 319.753 64.6718 319.753 50.8861" stroke="#655AF3" stroke-width="4" stroke-linecap="round" stroke-linejoin="round"/>
<path d="M329 50.1409C329 62.4088 329 74.6767 329 86.9446C329 92.7099 329 75.4141 329 69.6489C329 62.2412 329 54.8335 329 47.4258C329 41.5984 336.948 42.9008 341.916 42.9008C354.469 42.9008 337.347 57.216 335.458 59.9954C331.525 65.7824 335.448 66.7019 342.394 71.8611C351.886 78.9111 362.286 86.8559 369.899 95.3914" stroke="#655AF3" stroke-width="4" stroke-linecap="round" stroke-linejoin="round"/>
<path d="M661 74C663.639 74 666.277 74 668.916 74" stroke="#655AF3" stroke-width="4" stroke-linecap="round" stroke-linejoin="round"/>
<path d="M684.886 60C684.886 73.4143 689.996 85.1967 700.274 94.904C702.946 97.4272 709.406 97.5737 710.996 94.0701C713.537 88.4684 715.842 82.6944 716.924 76.6777C717.779 71.9212 719.619 60.802 718.879 72.3296C717.341 96.2986 699.141 117.309 685.139 135.824C679.947 142.688 675.363 150.784 667.417 154.824C665.865 155.614 660.438 155.42 661.048 155.42" stroke="#655AF3" stroke-width="4" stroke-linecap="round" stroke-linejoin="round"/>
<path d="M211.886 46.7765C211.886 60.1908 216.996 71.9732 227.274 81.6804C229.946 84.2036 236.406 84.3502 237.996 80.8466C240.537 75.2449 242.842 69.4709 243.924 63.4541C244.779 58.6977 246.619 47.5785 245.879 59.106C244.341 83.0751 226.141 104.085 212.139 122.6C206.947 129.464 202.363 137.56 194.417 141.601C192.865 142.39 187.438 142.197 188.048 142.197" stroke="#655AF3" stroke-width="4" stroke-linecap="round" stroke-linejoin="round"/>
</svg>
