<svg width="190" height="81" viewBox="0 0 190 81" fill="none" xmlns="http://www.w3.org/2000/svg">
<path d="M9.09675 2C14.589 2.32894 25.4335 2.40453 30.7055 4.80154C37.6112 7.94128 40.0074 13.9694 41.3828 19.6764C45.2584 35.7574 43.789 53.4629 43.4166 69.7705C43.2899 75.3163 43.73 79.9207 35.112 78.8422C26.4671 77.7602 18.5116 74.4834 12.6135 69.437C6.32312 64.055 2.64707 57.4785 2.27516 50.1598C2.21113 48.8998 1.36753 45.2641 2.99545 44.6234" stroke="#655AF3" stroke-width="4" stroke-linecap="round" stroke-linejoin="round"/>
<path d="M58.2687 11.9005C53.8349 20.3366 47.8536 34.2025 52.9604 43.7285C55.7296 48.8943 58.2889 52.8159 63.577 55.9545C68.4954 58.8737 70.3272 47.4419 70.9436 45.3452C72.603 39.7003 73.6376 26.7566 71.4311 20.9942C70.3943 18.2866 59.4299 7.91569 57.2937 11.9005" stroke="#655AF3" stroke-width="4" stroke-linecap="round" stroke-linejoin="round"/>
<path d="M84.4334 21.7634C84.4334 31.8587 84.4334 41.9539 84.4334 52.0491" stroke="#655AF3" stroke-width="4" stroke-linecap="round" stroke-linejoin="round"/>
<path d="M80 13.0295C81.3557 12.4846 90.9339 8.46886 88.3004 5.6089C87.0087 4.20621 84.101 5.47433 83.564 6.91843C82.6149 9.47057 85.9087 13.9616 85.9087 10.6724" stroke="#655AF3" stroke-width="4" stroke-linecap="round" stroke-linejoin="round"/>
<path d="M96.3604 18C96.3604 28.1807 96.3604 58.7229 96.3604 48.5422C96.3604 41.1031 94.4968 31.7716 99.2454 25.5087C110.391 10.8085 118.87 48.3358 120.402 52.7024" stroke="#655AF3" stroke-width="4" stroke-linecap="round" stroke-linejoin="round"/>
<path d="M144.097 14C144.097 18.2022 141.838 64.7216 159.158 52.7304C170.147 45.1228 166.879 28.8808 166.879 17.4174" stroke="#655AF3" stroke-width="4" stroke-linecap="round" stroke-linejoin="round"/>
<path d="M187.948 20.1251C172.306 8.74916 176.966 31.5449 181.619 38.8574C183.01 41.0434 188.013 48.1521 184.53 49.9956C181.046 51.8403 174.124 53.9903 172 49.7424" stroke="#655AF3" stroke-width="4" stroke-linecap="round" stroke-linejoin="round"/>
</svg>
