<svg width="715" height="158" viewBox="0 0 715 158" fill="none" xmlns="http://www.w3.org/2000/svg">
<path d="M120.498 46.2238C120.498 59.5733 120.498 99.6218 120.498 86.2723C120.498 76.5178 117.901 64.2819 124.519 56.0696C140.055 36.7939 151.873 86.0018 154.009 91.7274" stroke="#33CCA7" stroke-width="4" stroke-linecap="round" stroke-linejoin="round"/>
<path d="M660.452 36.3976C660.452 54.3851 657.091 75.4313 662.416 92.6304C664.375 98.96 674.64 99.1188 680.337 99.1188" stroke="#33CCA7" stroke-width="4" stroke-linecap="round" stroke-linejoin="round"/>
<path d="M413.382 28.7775C408.008 28.7775 400.903 27.0056 396.086 30.7362C393.438 32.7868 391.656 39.4807 390.686 43.1003C388.795 50.1567 386.967 57.2329 388.032 64.8905C389.156 72.9712 392.097 86.167 398.739 89.129C405.26 92.0365 417.806 94.0648 421.618 83.8651" stroke="#33CCA7" stroke-width="4" stroke-linecap="round" stroke-linejoin="round"/>
<path d="M435.71 40.4986C430.024 50.6687 422.354 67.3845 428.902 78.8685C432.454 85.0961 435.736 89.8237 442.517 93.6075C448.824 97.1267 451.173 83.3452 451.963 80.8175C454.091 74.0124 455.418 58.4082 452.589 51.4614C451.259 48.1972 437.199 35.6947 434.459 40.4986" stroke="#33CCA7" stroke-width="4" stroke-linecap="round" stroke-linejoin="round"/>
<path d="M463.869 50.0681C463.869 62.6324 462.04 76.5038 463.938 88.9952C464.315 91.4718 466.357 101.104 466.357 93.6641C466.357 83.643 463.869 73.6519 463.869 63.5289C463.869 59.599 462.755 42.4282 471.333 42.4282C474.528 42.4282 476.482 49.2281 477.553 51.1595C482.799 60.6219 483.772 73.4763 483.772 83.902C483.772 86.0699 483.772 98.2961 483.772 93.179C483.772 82.9702 482.228 72.0875 486.882 62.5587C488.63 58.9805 494.58 51.3381 499.667 51.1595C501.772 51.0857 501.753 57.7391 502.155 59.2845C503.644 64.9991 502.928 71.0681 504.92 76.7471C506.421 81.0275 507.408 87.0655 507.408 91.5419" stroke="#33CCA7" stroke-width="4" stroke-linecap="round" stroke-linejoin="round"/>
<path d="M517.414 50.0681C517.414 62.6324 515.584 76.5038 517.483 88.9952C517.859 91.4718 519.902 101.104 519.902 93.6641C519.902 83.643 517.414 73.6519 517.414 63.5289C517.414 59.599 516.299 42.4282 524.877 42.4282C528.072 42.4282 530.026 49.2281 531.097 51.1595C536.344 60.6219 537.317 73.4763 537.317 83.902C537.317 86.07 537.317 98.2962 537.317 93.179C537.317 82.9702 535.772 72.0875 540.427 62.5588C542.175 58.9805 548.124 51.3381 553.212 51.1595C555.316 51.0857 555.297 57.7391 555.7 59.2845C557.188 64.9991 556.472 71.0681 558.464 76.7471C559.965 81.0275 560.952 87.0655 560.952 91.5419" stroke="#33CCA7" stroke-width="4" stroke-linecap="round" stroke-linejoin="round"/>
<path d="M570.26 51.7471C570.26 63.0059 563.014 96.7089 585.95 95.5912C595.533 95.1243 595.253 75.512 595.253 70.3808C595.253 65.5361 597.874 51.8537 594.003 48.4587" stroke="#33CCA7" stroke-width="4" stroke-linecap="round" stroke-linejoin="round"/>
<path d="M605.332 52.4791C605.332 64.7523 605.332 101.572 605.332 89.2989C605.332 80.3308 602.942 69.0813 609.032 61.5311C623.324 43.8094 634.197 89.0502 636.162 94.3142" stroke="#33CCA7" stroke-width="4" stroke-linecap="round" stroke-linejoin="round"/>
<path d="M646.515 55.4943C646.515 67.6646 646.515 79.8348 646.515 92.005" stroke="#33CCA7" stroke-width="4" stroke-linecap="round" stroke-linejoin="round"/>
<path d="M96.1984 36.8071C97.9368 36.1502 110.22 31.309 106.842 27.8612C105.186 26.1702 101.457 27.699 100.769 29.4399C99.5516 32.5166 103.776 37.9307 103.776 33.9654" stroke="#33CCA7" stroke-width="4" stroke-linecap="round" stroke-linejoin="round"/>
<path d="M640.566 46.0775C642.304 45.4206 654.587 40.5794 651.21 37.1316C649.554 35.4406 645.825 36.9694 645.136 38.7103C643.919 41.787 648.143 47.2012 648.143 43.2359" stroke="#33CCA7" stroke-width="4" stroke-linecap="round" stroke-linejoin="round"/>
<path d="M11.0629 2C18.0767 2.39403 31.9257 2.48457 38.6583 5.35591C47.4772 9.11696 50.5373 16.3379 52.2937 23.1742C57.243 42.4374 55.3666 63.6465 54.891 83.1811C54.7292 89.8243 55.2913 95.3399 44.2857 94.0479C33.2457 92.7518 23.0861 88.8266 15.5539 82.7816C7.52083 76.3346 2.82634 68.4567 2.35139 59.6897C2.26962 58.1804 1.19231 53.8253 3.27124 53.0578" stroke="#33CCA7" stroke-width="4" stroke-linecap="round" stroke-linejoin="round"/>
<path d="M261.08 43.2761C255.464 53.3248 247.889 69.8411 254.357 81.1881C257.864 87.3413 261.105 92.0125 267.803 95.7511C274.032 99.2283 276.352 85.6112 277.133 83.1137C279.234 76.3899 280.545 60.972 277.75 54.1081C276.437 50.8829 262.55 38.5295 259.845 43.2761" stroke="#33CCA7" stroke-width="4" stroke-linecap="round" stroke-linejoin="round"/>
<path d="M73.6743 38.2507C68.0589 48.2994 60.4834 64.8157 66.9512 76.1627C70.4586 82.3159 73.7 86.9871 80.3974 90.7257C86.6267 94.2029 88.9467 80.5859 89.7274 78.0884C91.8291 71.3645 93.1394 55.9466 90.3448 49.0827C89.0317 45.8575 75.145 33.5042 72.4395 38.2507" stroke="#33CCA7" stroke-width="4" stroke-linecap="round" stroke-linejoin="round"/>
<path d="M107.106 46.2238C107.106 58.5221 107.106 70.8203 107.106 83.1186" stroke="#33CCA7" stroke-width="4" stroke-linecap="round" stroke-linejoin="round"/>
<path d="M287.695 46.2238C287.695 51.3029 284.782 107.53 307.116 93.0367C321.286 83.8416 317.072 64.2101 317.072 50.3544" stroke="#33CCA7" stroke-width="4" stroke-linecap="round" stroke-linejoin="round"/>
<path d="M326.241 49.6053C326.241 61.9356 326.241 74.2659 326.241 86.5962C326.241 92.3908 326.241 75.0071 326.241 69.2125C326.241 61.7671 326.241 54.3218 326.241 46.8764C326.241 41.0193 334.121 42.3283 339.047 42.3283C351.495 42.3283 334.517 56.7163 332.644 59.5099C328.745 65.3264 332.634 66.2505 339.522 71.436C348.933 78.5219 359.246 86.507 366.795 95.0859" stroke="#33CCA7" stroke-width="4" stroke-linecap="round" stroke-linejoin="round"/>
<path d="M655.439 73.5858C658.056 73.5858 660.672 73.5858 663.289 73.5858" stroke="#33CCA7" stroke-width="4" stroke-linecap="round" stroke-linejoin="round"/>
<path d="M679.124 59.5146C679.124 72.9972 684.191 84.8395 694.383 94.5961C697.032 97.1321 703.437 97.2794 705.013 93.7579C707.534 88.1278 709.819 82.3245 710.891 76.2771C711.739 71.4964 713.563 60.3206 712.83 71.9069C711.305 95.9978 693.259 117.115 679.374 135.724C674.227 142.623 669.681 150.76 661.803 154.821C660.264 155.615 654.882 155.42 655.487 155.42" stroke="#33CCA7" stroke-width="4" stroke-linecap="round" stroke-linejoin="round"/>
<path d="M210.115 46.2238C210.115 59.7064 215.182 71.5487 225.374 81.3053C228.023 83.8413 234.428 83.9886 236.004 80.4672C238.525 74.8371 240.81 69.0337 241.882 62.9863C242.73 58.2056 244.554 47.0299 243.821 58.6161C242.296 82.707 224.25 103.824 210.366 122.433C205.218 129.332 200.672 137.469 192.794 141.53C191.255 142.324 185.873 142.129 186.478 142.129" stroke="#33CCA7" stroke-width="4" stroke-linecap="round" stroke-linejoin="round"/>
</svg>
