<?xml version="1.0" encoding="UTF-8"?>
<svg width="246px" height="57px" viewBox="0 0 246 57" version="1.1" xmlns="http://www.w3.org/2000/svg" xmlns:xlink="http://www.w3.org/1999/xlink">
    <!-- Generator: Sketch 60 (88103) - https://sketch.com -->
    <title>new-logo</title>
    <desc>Created with Sketch.</desc>
    <g id="Page-1" stroke="none" stroke-width="1" fill="none" fill-rule="evenodd" stroke-linecap="round" stroke-linejoin="round">
        <g id="new-logo" transform="translate(3.000000, 2.000000)" stroke="#6A6DEB" stroke-width="4">
            <path d="M234.577,0.34881 C230.387,0.34881 224.846,-1.120946 221.09,1.97353 C219.025,3.67455 217.635,9.2271 216.879,12.2296 C215.404,18.0829 213.979,23.9527 214.81,30.3046 C215.686,37.0076 217.979,47.9535 223.159,50.4106 C228.244,52.8223 238.027,54.5048 241,46.0441" id="Path"></path>
            <path d="M20.0131,0.34881 C15.8224,0.34881 10.2817,-1.120946 6.52537,1.97353 C4.46052,3.67455 3.07135,9.2271 2.31491,12.2296 C0.84023,18.0829 -0.58515,23.9527 0.24537,30.3046 C1.12177,37.0076 3.4147,47.9535 8.5949,50.4106 C13.6798,52.8223 23.4629,54.5048 26.4358,46.0441" id="Path"></path>
            <path d="M36.4493,4.25863 C32.0156,12.6947 26.0343,26.5606 31.141,36.0866 C33.9103,41.2524 36.4696,45.174 41.7576,48.3126 C46.676,51.2318 48.5078,39.8 49.1242,37.7033 C50.7837,32.0584 51.8182,19.1147 49.6117,13.3523 C48.5749,10.6447 37.6105,0.27378 35.4743,4.25863" id="Path"></path>
            <path d="M59.9514,8.2302 C59.9514,18.6522 58.525,30.1586 60.0053,40.5203 C60.2988,42.5746 61.8915,50.5646 61.8915,44.3931 C61.8915,36.0806 59.9514,27.793 59.9514,19.3959 C59.9514,16.1361 59.0824,1.89285 65.7717,1.89285 C68.263,1.89285 69.7868,7.53338 70.6219,9.1355 C74.7134,16.9845 75.4722,27.6473 75.4722,36.2954 C75.4722,38.0938 75.4722,48.2354 75.4722,43.9907 C75.4722,35.5225 74.2677,26.4953 77.8973,18.5912 C79.2603,15.623 83.8999,9.2836 87.8672,9.1355 C89.508,9.0742 89.4934,14.5933 89.8073,15.8752 C90.9683,20.6155 90.4099,25.6497 91.963,30.3605 C93.1336,33.9111 93.9031,38.9196 93.9031,42.6327" id="Path"></path>
            <path d="M102.339,10.123 C102.339,20.5451 100.912,32.0514 102.392,42.4131 C102.686,44.4674 104.279,52.4574 104.279,46.2859 C104.279,37.9734 102.339,29.6858 102.339,21.2887 C102.339,18.0289 101.47,3.78568 108.159,3.78568 C110.65,3.78568 112.174,9.4262 113.009,11.0283 C117.1,18.8774 117.859,29.5401 117.859,38.1883 C117.859,39.9866 117.859,50.1283 117.859,45.8836 C117.859,37.4153 116.655,28.3881 120.284,20.484 C121.647,17.5158 126.287,11.1764 130.254,11.0283 C131.895,10.9671 131.88,16.4861 132.194,17.768 C133.355,22.5083 132.797,27.5425 134.35,32.2533 C135.521,35.8039 136.29,40.8124 136.29,44.5256" id="Path"></path>
            <path d="M143.599,16.6086 C143.599,25.9478 137.948,53.9046 155.834,52.9774 C163.307,52.5901 163.088,36.3217 163.088,32.0653 C163.088,28.0466 165.132,16.6971 162.114,13.8809" id="Path"></path>
            <path d="M171.153,14.2719 C171.153,24.4526 171.153,54.9948 171.153,44.814 C171.153,37.375 169.29,28.0435 174.038,21.7806 C185.184,7.08037 193.663,44.6077 195.195,48.9743" id="Path"></path>
            <path d="M201.69,18.4695 C201.69,28.5647 201.69,38.66 201.69,48.7552" id="Path"></path>
            <path d="M197.257,9.7356 C198.613,9.1907 208.191,5.17491 205.557,2.31496 C204.266,0.91227 201.358,2.18039 200.821,3.62448 C199.872,6.17663 203.166,10.6677 203.166,7.37845" id="Path"></path>
        </g>
    </g>
</svg>