<svg width="245" height="57" viewBox="0 0 245 57" fill="none" xmlns="http://www.w3.org/2000/svg">
<path d="M236.577 2.34881C232.387 2.34881 226.846 0.879054 223.09 3.97353C221.025 5.67455 219.635 11.2271 218.879 14.2296C217.404 20.0829 215.979 25.9527 216.81 32.3046C217.686 39.0076 219.979 49.9535 225.159 52.4106C230.244 54.8223 240.027 56.5048 243 48.0441" stroke="#6A6DEB" stroke-width="4" stroke-linecap="round" stroke-linejoin="round"/>
<path d="M22.0131 2.34881C17.8224 2.34881 12.2817 0.879054 8.52537 3.97353C6.46052 5.67455 5.07135 11.2271 4.31491 14.2296C2.84023 20.0829 1.41485 25.9527 2.24537 32.3046C3.12177 39.0076 5.4147 49.9535 10.5949 52.4106C15.6798 54.8223 25.4629 56.5048 28.4358 48.0441" stroke="#6A6DEB" stroke-width="4" stroke-linecap="round" stroke-linejoin="round"/>
<path d="M38.4493 6.25863C34.0156 14.6947 28.0343 28.5606 33.141 38.0866C35.9103 43.2524 38.4696 47.174 43.7576 50.3126C48.676 53.2318 50.5078 41.8 51.1242 39.7033C52.7837 34.0584 53.8182 21.1147 51.6117 15.3523C50.5749 12.6447 39.6105 2.27378 37.4743 6.25863" stroke="#6A6DEB" stroke-width="4" stroke-linecap="round" stroke-linejoin="round"/>
<path d="M61.9514 10.2302C61.9514 20.6522 60.525 32.1586 62.0053 42.5203C62.2988 44.5746 63.8915 52.5646 63.8915 46.3931C63.8915 38.0806 61.9514 29.793 61.9514 21.3959C61.9514 18.1361 61.0824 3.89285 67.7717 3.89285C70.263 3.89285 71.7868 9.53338 72.6219 11.1355C76.7134 18.9845 77.4722 29.6473 77.4722 38.2954C77.4722 40.0938 77.4722 50.2354 77.4722 45.9907C77.4722 37.5225 76.2677 28.4953 79.8973 20.5912C81.2603 17.623 85.8999 11.2836 89.8672 11.1355C91.508 11.0742 91.4934 16.5933 91.8073 17.8752C92.9683 22.6155 92.4099 27.6497 93.963 32.3605C95.1336 35.9111 95.9031 40.9196 95.9031 44.6327" stroke="#6A6DEB" stroke-width="4" stroke-linecap="round" stroke-linejoin="round"/>
<path d="M104.339 12.123C104.339 22.5451 102.912 34.0514 104.392 44.4131C104.686 46.4674 106.279 54.4574 106.279 48.2859C106.279 39.9734 104.339 31.6858 104.339 23.2887C104.339 20.0289 103.47 5.78568 110.159 5.78568C112.65 5.78568 114.174 11.4262 115.009 13.0283C119.1 20.8774 119.859 31.5401 119.859 40.1883C119.859 41.9866 119.859 52.1283 119.859 47.8836C119.859 39.4153 118.655 30.3881 122.284 22.484C123.647 19.5158 128.287 13.1764 132.254 13.0283C133.895 12.9671 133.88 18.4861 134.194 19.768C135.355 24.5083 134.797 29.5425 136.35 34.2533C137.521 37.8039 138.29 42.8124 138.29 46.5256" stroke="#6A6DEB" stroke-width="4" stroke-linecap="round" stroke-linejoin="round"/>
<path d="M145.599 18.6086C145.599 27.9478 139.948 55.9046 157.834 54.9774C165.307 54.5901 165.088 38.3217 165.088 34.0653C165.088 30.0466 167.132 18.6971 164.114 15.8809" stroke="#6A6DEB" stroke-width="4" stroke-linecap="round" stroke-linejoin="round"/>
<path d="M173.153 16.2719C173.153 26.4526 173.153 56.9948 173.153 46.814C173.153 39.375 171.29 30.0435 176.038 23.7806C187.184 9.08037 195.663 46.6077 197.195 50.9743" stroke="#6A6DEB" stroke-width="4" stroke-linecap="round" stroke-linejoin="round"/>
<path d="M203.69 20.4695C203.69 30.5647 203.69 40.66 203.69 50.7552" stroke="#6A6DEB" stroke-width="4" stroke-linecap="round" stroke-linejoin="round"/>
<path d="M199.257 11.7356C200.613 11.1907 210.191 7.17491 207.557 4.31496C206.266 2.91227 203.358 4.18039 202.821 5.62448C201.872 8.17663 205.166 12.6677 205.166 9.37845" stroke="#6A6DEB" stroke-width="4" stroke-linecap="round" stroke-linejoin="round"/>
</svg>
